<?xml version="1.0" encoding="UTF-8"?>
<svg version="1.1" xmlns="http://www.w3.org/2000/svg" width="179" height="168">
<path d="M0 0 C2.2265625 1.16796875 2.2265625 1.16796875 4.3203125 2.8125 C6.2618393 4.48561369 6.2618393 4.48561369 9.3515625 4.04296875 C14.05647294 2.98056962 18.63427354 1.63713162 23.2265625 0.16796875 C22.43914591 4.96706565 20.73139324 8.04711818 18.2265625 12.16796875 C18.9690625 11.81734375 19.7115625 11.46671875 20.4765625 11.10546875 C23.3588351 10.12287582 24.43832595 10.13528855 27.2265625 11.16796875 C25.44559755 14.13624367 23.97324656 16.57032637 21.25 18.75 C16.69140528 22.42174084 14.84000198 25.20955338 14.16235352 31.13745117 C13.97449361 33.38016764 13.7959359 35.62342046 13.62109375 37.8671875 C12.21883837 55.43207789 1.50981802 73.47035927 -11.10546875 85.3671875 C-28.28664455 99.93926714 -47.08954772 103.53098556 -68.96191406 102.39990234 C-78.7901523 101.58913243 -89.68189643 99.0210336 -97.7734375 93.16796875 C-98.1034375 92.17796875 -98.4334375 91.18796875 -98.7734375 90.16796875 C-97.98582031 90.07 -97.19820312 89.97203125 -96.38671875 89.87109375 C-80.95565068 87.80121117 -80.95565068 87.80121117 -67.7734375 80.16796875 C-68.8046875 79.75546875 -69.8359375 79.34296875 -70.8984375 78.91796875 C-77.7118934 75.9370818 -82.97389275 72.29914742 -85.7734375 65.16796875 C-85.40234375 62.91796875 -85.40234375 62.91796875 -84.7734375 61.16796875 C-84.1134375 61.16796875 -83.4534375 61.16796875 -82.7734375 61.16796875 C-83.22074219 60.67167969 -83.66804688 60.17539063 -84.12890625 59.6640625 C-91.24139058 51.67199589 -95.95332758 46.14126366 -95.7734375 35.16796875 C-93.4634375 35.49796875 -91.1534375 35.82796875 -88.7734375 36.16796875 C-89.53140625 34.87826172 -89.53140625 34.87826172 -90.3046875 33.5625 C-94.86994091 25.41241911 -97.29344346 18.72800623 -95.7734375 9.16796875 C-95.00194203 6.78846866 -94.19723658 5.24434241 -92.7734375 3.16796875 C-89.82143363 4.47926661 -88.01476212 5.81099493 -85.8984375 8.23046875 C-73.40927956 20.98592004 -56.87264134 25.97161302 -39.7734375 29.16796875 C-39.81984375 28.55050781 -39.86625 27.93304688 -39.9140625 27.296875 C-40.26550527 19.0505214 -38.17649659 13.0952467 -33.2734375 6.48046875 C-23.91553638 -3.6336264 -12.13111793 -5.156713 0 0 Z " fill="#02A2F3" transform="translate(127.7734375,33.83203125)"/>
<path d="M0 0 C0.99 0.495 0.99 0.495 2 1 C-2 5 -2 5 -3.53515625 6.28515625 C-8.2425995 11.79600315 -8.41752866 22.01034398 -9 29 C-15.86685339 31.28895113 -24.95835743 30.68387105 -32 29 C-32.495 28.484375 -32.99 27.96875 -33.5 27.4375 C-35.08289121 25.60107059 -35.08289121 25.60107059 -38.5625 25.875 C-39.696875 25.91625 -40.83125 25.9575 -42 26 C-42.66 25.67 -43.32 25.34 -44 25 C-45.32860925 24.64830932 -46.66158328 24.31229724 -48 24 C-47.34 23.01 -46.68 22.02 -46 21 C-46.99 21 -47.98 21 -49 21 C-49.33 22.65 -49.66 24.3 -50 26 C-50.99 26.33 -51.98 26.66 -53 27 C-53 28.65 -53 30.3 -53 32 C-53.99 32.495 -53.99 32.495 -55 33 C-55.1546875 34.2065625 -55.1546875 34.2065625 -55.3125 35.4375 C-55.539375 36.283125 -55.76625 37.12875 -56 38 C-58.5 39.125 -58.5 39.125 -61 40 C-61.33 40.99 -61.66 41.98 -62 43 C-61.01 43 -60.02 43 -59 43 C-59 43.66 -59 44.32 -59 45 C-59.66 45 -60.32 45 -61 45 C-61 47.31 -61 49.62 -61 52 C-58.47426249 53.08245893 -56.14040604 53.9726037 -53.4375 54.5 C-50.99790722 55.00042929 -49.1668614 55.79618811 -47 57 C-47.33 57.66 -47.66 58.32 -48 59 C-48.928125 58.835 -49.85625 58.67 -50.8125 58.5 C-53.95621353 57.92251612 -53.95621353 57.92251612 -57 58 C-62.36116478 53.86078448 -67.03016091 48.56613031 -69 42 C-69.28419901 39.2337963 -69.19937662 36.79127265 -69 34 C-66.69 34.33 -64.38 34.66 -62 35 C-62.75796875 33.71029297 -62.75796875 33.71029297 -63.53125 32.39453125 C-68.09650341 24.24445036 -70.52000596 17.56003748 -69 8 C-68.22850453 5.62049991 -67.42379908 4.07637366 -66 2 C-63.04799613 3.31129786 -61.24132462 4.64302618 -59.125 7.0625 C-46.63584206 19.81795129 -30.09920384 24.80364427 -13 28 C-13.04640625 27.38253906 -13.0928125 26.76507813 -13.140625 26.12890625 C-13.54152903 16.72197964 -10.67399012 10.3769173 -4.46484375 3.41015625 C-3 2 -3 2 0 0 Z " fill="#03A1F4" transform="translate(101,35)"/>
<path d="M0 0 C0.99 0 1.98 0 3 0 C3 0.66 3 1.32 3 2 C2.01 2.495 2.01 2.495 1 3 C4.46941158 8.46695158 7.18619408 11.15009514 13 14 C13 14.66 13 15.32 13 16 C15.31 16.66 17.62 17.32 20 18 C20 21 20 21 18.78125 22.58203125 C16.73957333 24.20731334 14.983947 24.90505669 12.5 25.6875 C11.7265625 25.93886719 10.953125 26.19023438 10.15625 26.44921875 C8 27 8 27 5 27 C5 27.66 5 28.32 5 29 C-0.37625234 29.84888195 -4.65370398 30.0024305 -10 29 C-10 29.99 -10 30.98 -10 32 C-9.40574219 32.09796875 -8.81148437 32.1959375 -8.19921875 32.296875 C-3.53660628 33.13803059 0.66696208 34.20714227 5.0390625 36.046875 C11.42539346 38.41030759 17.30881055 38.59473322 24.0625 38.5 C25.72249023 38.52320313 25.72249023 38.52320313 27.41601562 38.546875 C33.87624179 38.51634824 38.91728598 37.71827648 44.77905273 34.95507812 C49.2756132 33.02141378 54.18246712 32.66123 59 32 C59 31.34 59 30.68 59 30 C60.62175618 28.87013678 62.30046843 27.82159687 64 26.8125 C73.22215995 21.44282273 73.22215995 21.44282273 79 13 C81.5625 11.8125 81.5625 11.8125 84 11 C74.47384736 25.6294487 60.89655896 35.73789735 43.71630859 39.91699219 C25.22666379 43.67656777 5.56688233 41.82286997 -11.27734375 33.24609375 C-13 32 -13 32 -14 29 C-13.21238281 28.90203125 -12.42476562 28.8040625 -11.61328125 28.703125 C3.81778682 26.63324242 3.81778682 26.63324242 17 19 C15.96875 18.5875 14.9375 18.175 13.875 17.75 C7.0615441 14.76911305 1.79954475 11.13117867 -1 4 C-0.62890625 1.75 -0.62890625 1.75 0 0 Z " fill="#2195D1" transform="translate(43,95)"/>
<path d="M0 0 C0.66 0.33 1.32 0.66 2 1 C-2 5 -2 5 -3.53515625 6.28515625 C-8.2425995 11.79600315 -8.41752866 22.01034398 -9 29 C-15.86685339 31.28895113 -24.95835743 30.68387105 -32 29 C-32.495 28.484375 -32.99 27.96875 -33.5 27.4375 C-35.08289121 25.60107059 -35.08289121 25.60107059 -38.5625 25.875 C-39.696875 25.91625 -40.83125 25.9575 -42 26 C-42.66 25.67 -43.32 25.34 -44 25 C-45.32860925 24.64830932 -46.66158328 24.31229724 -48 24 C-47.34 22.35 -46.68 20.7 -46 19 C-46.721875 18.7525 -47.44375 18.505 -48.1875 18.25 C-51.24713266 16.89016326 -53.4673738 15.17082246 -56 13 C-55.67 12.34 -55.34 11.68 -55 11 C-54.15179688 11.59167969 -53.30359375 12.18335938 -52.4296875 12.79296875 C-40.1094746 21.17795235 -27.60004753 25.27081178 -13 28 C-13.04640625 27.38253906 -13.0928125 26.76507813 -13.140625 26.12890625 C-13.54152903 16.72197964 -10.67399012 10.3769173 -4.46484375 3.41015625 C-3 2 -3 2 0 0 Z " fill="#129CE4" transform="translate(101,35)"/>
<path d="M0 0 C1.1157177 3.34715311 1.1807689 4.71071522 0 8 C-2.5 9.125 -2.5 9.125 -5 10 C-5.33 10.99 -5.66 11.98 -6 13 C-5.01 13 -4.02 13 -3 13 C-3 13.66 -3 14.32 -3 15 C-3.66 15 -4.32 15 -5 15 C-5 17.31 -5 19.62 -5 22 C-2.47426249 23.08245893 -0.14040604 23.9726037 2.5625 24.5 C5.00209278 25.00042929 6.8331386 25.79618811 9 27 C8.67 27.66 8.34 28.32 8 29 C7.071875 28.835 6.14375 28.67 5.1875 28.5 C2.04378647 27.92251612 2.04378647 27.92251612 -1 28 C-6.36116478 23.86078448 -11.03016091 18.56613031 -13 12 C-13.28419901 9.2337963 -13.19937662 6.79127265 -13 4 C-10.69 4.33 -8.38 4.66 -6 5 C-6.33 3.68 -6.66 2.36 -7 1 C-5.5459375 1.0309375 -5.5459375 1.0309375 -4.0625 1.0625 C-1.12534105 1.35618499 -1.12534105 1.35618499 0 0 Z " fill="#049EEB" transform="translate(45,65)"/>
<path d="M0 0 C3.21043882 1.38188453 5.04936365 2.92421903 7.25 5.625 C7.77078125 6.25664063 8.2915625 6.88828125 8.828125 7.5390625 C9.40820312 8.26222656 9.40820312 8.26222656 10 9 C8.68 8.67 7.36 8.34 6 8 C6 8.99 6 9.98 6 11 C5.34 11 4.68 11 4 11 C4.33 13.64 4.66 16.28 5 19 C4.01 19 3.02 19 2 19 C2.165 19.53625 2.33 20.0725 2.5 20.625 C3.09660212 23.45886009 3.0656368 26.1119806 3 29 C-0.28365281 26.34180487 -1.99007305 23.03283755 -3 19 C-3.64204612 12.12582625 -4.00694616 5.84346314 0 0 Z " fill="#04A0EC" transform="translate(35,37)"/>
<path d="M0 0 C0.99 0 1.98 0 3 0 C3 0.66 3 1.32 3 2 C2.01 2.495 2.01 2.495 1 3 C4.46941158 8.46695158 7.18619408 11.15009514 13 14 C13 14.66 13 15.32 13 16 C15.31 16.66 17.62 17.32 20 18 C20 21 20 21 18.78125 22.58203125 C16.73957333 24.20731334 14.983947 24.90505669 12.5 25.6875 C11.7265625 25.93886719 10.953125 26.19023438 10.15625 26.44921875 C8 27 8 27 5 27 C5 27.66 5 28.32 5 29 C-0.37625234 29.84888195 -4.65370398 30.0024305 -10 29 C-10 29.99 -10 30.98 -10 32 C-9.21625 32.144375 -8.4325 32.28875 -7.625 32.4375 C-5 33 -5 33 -3 34 C-3 34.66 -3 35.32 -3 36 C-4.46366342 35.60246179 -5.9208935 35.18118616 -7.375 34.75 C-8.18710937 34.51796875 -8.99921875 34.2859375 -9.8359375 34.046875 C-12.45785454 32.7785108 -12.99382318 31.67576692 -14 29 C-13.21238281 28.90203125 -12.42476562 28.8040625 -11.61328125 28.703125 C3.81778682 26.63324242 3.81778682 26.63324242 17 19 C15.96875 18.5875 14.9375 18.175 13.875 17.75 C7.0615441 14.76911305 1.79954475 11.13117867 -1 4 C-0.62890625 1.75 -0.62890625 1.75 0 0 Z " fill="#2589BF" transform="translate(43,95)"/>
<path d="M0 0 C0.53625 0.226875 1.0725 0.45375 1.625 0.6875 C-0.15596495 3.65577492 -1.62831594 6.08985762 -4.3515625 8.26953125 C-9.06862645 12.06891185 -10.80589642 15.06494143 -11.54638672 20.9753418 C-11.74298094 23.17158681 -11.89096283 25.36546297 -12.0234375 27.56640625 C-12.26623046 31.51132849 -13.16091621 34.93173674 -14.375 38.6875 C-14.705 38.6875 -15.035 38.6875 -15.375 38.6875 C-15.40391949 34.39584738 -15.42177118 30.10421964 -15.4375 25.8125 C-15.44587891 24.58917969 -15.45425781 23.36585937 -15.46289062 22.10546875 C-15.46611328 20.93886719 -15.46933594 19.77226563 -15.47265625 18.5703125 C-15.47789307 17.49152832 -15.48312988 16.41274414 -15.48852539 15.30126953 C-15.375 12.6875 -15.375 12.6875 -14.375 10.6875 C-12.725 10.6875 -11.075 10.6875 -9.375 10.6875 C-9.065625 10.06875 -8.75625 9.45 -8.4375 8.8125 C-7.75 7.4375 -7.0625 6.0625 -6.375 4.6875 C-7.035 4.0275 -7.695 3.3675 -8.375 2.6875 C-2.95961538 -0.38942308 -2.95961538 -0.38942308 0 0 Z " fill="#2B8CB5" transform="translate(153.375,44.3125)"/>
<path d="M0 0 C2.2265625 1.16796875 2.2265625 1.16796875 4.3203125 2.8125 C6.2618393 4.48561369 6.2618393 4.48561369 9.3515625 4.04296875 C14.05647294 2.98056962 18.63427354 1.63713162 23.2265625 0.16796875 C22.53189167 4.10443679 21.57432904 6.88109559 19.2265625 10.16796875 C18.5665625 10.16796875 17.9065625 10.16796875 17.2265625 10.16796875 C16.7315625 8.18796875 16.7315625 8.18796875 16.2265625 6.16796875 C15.2365625 6.49796875 14.2465625 6.82796875 13.2265625 7.16796875 C9.03379176 7.56948639 5.42778311 7.81252615 1.6640625 5.79296875 C0.2265625 4.16796875 0.2265625 4.16796875 0.2265625 2.16796875 C-7.97660887 -0.7487144 -16.28593049 -0.34092139 -24.7734375 1.16796875 C-17.02631767 -4.9762987 -8.66126108 -3.68174127 0 0 Z " fill="#1892CC" transform="translate(127.7734375,33.83203125)"/>
<path d="M0 0 C1.423125 0.804375 1.423125 0.804375 2.875 1.625 C3.52339844 1.98980469 4.17179687 2.35460938 4.83984375 2.73046875 C6.29559979 3.58602158 7.72593225 4.48617481 9.12890625 5.42578125 C19.21298118 12.02905874 31.18325834 15.09682286 43 17 C43 17.33 43 17.66 43 18 C36.00394573 18.3415795 31.47897618 17.77670408 25 15 C22.09578546 14.82987865 19.26135639 14.87194387 16.35546875 14.9921875 C14 15 14 15 12 14 C10.67139075 13.64830932 9.33841672 13.31229724 8 13 C8.66 11.35 9.32 9.7 10 8 C9.278125 7.7525 8.55625 7.505 7.8125 7.25 C4.72393418 5.87730408 2.48988582 4.27646704 0 2 C0 1.34 0 0.68 0 0 Z " fill="#0B9ADE" transform="translate(45,46)"/>
<path d="M0 0 C0.66 0.33 1.32 0.66 2 1 C-4.48602508 9.84128558 -13.82699651 21.10045768 -25.20703125 23.45703125 C-27.12996754 23.70960607 -29.06530493 23.86423192 -31 24 C-30.67 23.34 -30.34 22.68 -30 22 C-27.67843403 21.59270772 -25.3431213 21.25561323 -23 21 C-23 20.34 -23 19.68 -23 19 C-21.37824382 17.87013678 -19.69953157 16.82159687 -18 15.8125 C-8.77784005 10.44282273 -8.77784005 10.44282273 -3 2 C-2.01 1.34 -1.02 0.68 0 0 Z " fill="#138CC8" transform="translate(125,106)"/>
<path d="M0 0 C-0.33 0.99 -0.66 1.98 -1 3 C-4.5625 4.1875 -4.5625 4.1875 -8 5 C-7.01 6.485 -7.01 6.485 -6 8 C-8.97 7.505 -8.97 7.505 -12 7 C-12.33 7.66 -12.66 8.32 -13 9 C-11.68 9.66 -10.36 10.32 -9 11 C-12.88235819 12.49828872 -15.43449288 11.43110582 -19.25 10.0625 C-20.32765625 9.68222656 -21.4053125 9.30195313 -22.515625 8.91015625 C-23.33546875 8.60980469 -24.1553125 8.30945313 -25 8 C-25 7.01 -25 6.02 -25 5 C-20.05 5 -15.1 5 -10 5 C-10 4.34 -10 3.68 -10 3 C-8.70990357 2.49596232 -7.41786211 1.99690074 -6.125 1.5 C-5.04605469 1.08234375 -5.04605469 1.08234375 -3.9453125 0.65625 C-2 0 -2 0 0 0 Z " fill="#079FEE" transform="translate(58,119)"/>
<path d="M0 0 C2.97 0.495 2.97 0.495 6 1 C6 1.66 6 2.32 6 3 C4.35 2.67 2.7 2.34 1 2 C1.7830784 4.14898232 2.57671243 6.29412095 3.375 8.4375 C3.81585938 9.63246094 4.25671875 10.82742187 4.7109375 12.05859375 C5.67085236 15.10196898 5.67085236 15.10196898 8 16 C8 16.66 8 17.32 8 18 C10.52573751 19.08245893 12.85959396 19.9726037 15.5625 20.5 C18.00209278 21.00042929 19.8331386 21.79618811 22 23 C21.67 23.66 21.34 24.32 21 25 C20.071875 24.835 19.14375 24.67 18.1875 24.5 C15.04378647 23.92251612 15.04378647 23.92251612 12 24 C6.63883522 19.86078448 1.96983909 14.56613031 0 8 C-0.28419901 5.2337963 -0.19937662 2.79127265 0 0 Z " fill="#1D98CE" transform="translate(32,69)"/>
<path d="M0 0 C3.21043882 1.38188453 5.04936365 2.92421903 7.25 5.625 C7.77078125 6.25664063 8.2915625 6.88828125 8.828125 7.5390625 C9.40820312 8.26222656 9.40820312 8.26222656 10 9 C5.32307692 7.52307692 5.32307692 7.52307692 3.6875 4.875 C3.3471875 3.946875 3.3471875 3.946875 3 3 C0.79191458 4.36483958 0.79191458 4.36483958 -1 7 C-1.99850443 13.13817462 -1.06406816 17.60724004 2 23 C2.6875 26.375 2.6875 26.375 3 29 C-0.28365281 26.34180487 -1.99007305 23.03283755 -3 19 C-3.64204612 12.12582625 -4.00694616 5.84346314 0 0 Z " fill="#1889C3" transform="translate(35,37)"/>
<path d="M0 0 C1.65 0 3.3 0 5 0 C4.67 0.66 4.34 1.32 4 2 C3.34 2 2.68 2 2 2 C2.02320313 3.29035156 2.04640625 4.58070312 2.0703125 5.91015625 C2.08908236 7.62759834 2.10728125 9.34504674 2.125 11.0625 C2.14175781 11.91005859 2.15851563 12.75761719 2.17578125 13.63085938 C2.21596135 18.83418201 1.69745815 23.07469821 0 28 C-0.33 28 -0.66 28 -1 28 C-1.02891949 23.70834738 -1.04677118 19.41671964 -1.0625 15.125 C-1.07087891 13.90167969 -1.07925781 12.67835937 -1.08789062 11.41796875 C-1.09111328 10.25136719 -1.09433594 9.08476563 -1.09765625 7.8828125 C-1.10289307 6.80402832 -1.10812988 5.72524414 -1.11352539 4.61376953 C-1 2 -1 2 0 0 Z " fill="#0690D2" transform="translate(139,55)"/>
<path d="M0 0 C0.66 0.33 1.32 0.66 2 1 C-2 5 -2 5 -3.5625 6.5 C-7.65363193 10.76900723 -8.90151188 14.58564765 -10.1875 20.25 C-10.36474609 20.99507812 -10.54199219 21.74015625 -10.72460938 22.5078125 C-11.15834193 24.33652271 -11.58034597 26.16800779 -12 28 C-12.33 28 -12.66 28 -13 28 C-13.69345753 18.77316232 -11.87214767 12.22551615 -5.9375 5.0625 C-4.01403951 2.90434672 -2.46184604 1.6412307 0 0 Z " fill="#277DBA" transform="translate(101,35)"/>
<path d="M0 0 C-0.33 0.66 -0.66 1.32 -1 2 C-2.546875 1.5359375 -2.546875 1.5359375 -4.125 1.0625 C-7.38972557 0.12497188 -10.63613462 -0.50772702 -14 -1 C-14.33 -0.01 -14.66 0.98 -15 2 C-15.61488281 1.9278125 -16.22976562 1.855625 -16.86328125 1.78125 C-17.67152344 1.6884375 -18.47976562 1.595625 -19.3125 1.5 C-20.51326172 1.36078125 -20.51326172 1.36078125 -21.73828125 1.21875 C-24.11896555 0.95186537 -24.11896555 0.95186537 -27 1 C-20.2652866 -5.7347134 -7.67386579 -4.09272842 0 0 Z " fill="#0C9BE3" transform="translate(128,36)"/>
<path d="M0 0 C0.68707555 2.49064888 1 4.37886292 1 7 C0.01 7.66 -0.98 8.32 -2 9 C-2.33 8.01 -2.66 7.02 -3 6 C-4.98 6.99 -4.98 6.99 -7 8 C-7.6875 5.6875 -7.6875 5.6875 -8 3 C-5.90994325 -0.36731366 -3.75103888 -0.30413829 0 0 Z " fill="#12A2EB" transform="translate(146,44)"/>
<path d="M0 0 C1.93359375 1.0703125 1.93359375 1.0703125 2.93359375 3.0703125 C0.31492277 2.62139747 -1.96613873 2.11433647 -4.40625 1.04296875 C-10.82576085 -1.30425328 -18.44682114 -0.10650263 -25.06640625 1.0703125 C-17.20080377 -5.16792395 -8.77353361 -3.69556018 0 0 Z " fill="#2887BB" transform="translate(128.06640625,33.9296875)"/>
<path d="M0 0 C1.10107995 3.30323986 0.86709271 4.70504769 0 8 C-1 9 -1 9 -3.5625 9.0625 C-4.366875 9.041875 -5.17125 9.02125 -6 9 C-6.98120464 5.94736336 -6.98120464 4.05263664 -6 1 C-4.7934375 1.0309375 -4.7934375 1.0309375 -3.5625 1.0625 C-1.06645115 1.29633621 -1.06645115 1.29633621 0 0 Z " fill="#18A0DF" transform="translate(45,65)"/>
<path d="M0 0 C1.06476562 0.39832031 2.12953125 0.79664063 3.2265625 1.20703125 C12.41314677 4.5814345 21.34722336 7.25607522 31 9 C31 9.33 31 9.66 31 10 C21.91255995 10.81950862 15.2766897 8.57450866 7 5 C5.39996608 4.38497195 3.79646148 3.77877913 2.1875 3.1875 C1.135625 2.795625 0.08375 2.40375 -1 2 C-0.67 1.34 -0.34 0.68 0 0 Z " fill="#328CC3" transform="translate(57,54)"/>
<path d="M0 0 C0.99 0 1.98 0 3 0 C3 0.66 3 1.32 3 2 C2.01 2.495 2.01 2.495 1 3 C4.46941158 8.46695158 7.18619408 11.15009514 13 14 C13 14.66 13 15.32 13 16 C8.12200473 15.58188612 6.15117773 13.63597431 3 10 C-1.07804878 4.74146341 -1.07804878 4.74146341 -0.75 1.625 C-0.5025 1.08875 -0.255 0.5525 0 0 Z " fill="#1685B6" transform="translate(43,95)"/>
<path d="M0 0 C0.66 0.33 1.32 0.66 2 1 C-0.11476642 8.16670844 -2.95467971 14.68975108 -7 21 C-7.66 21.33 -8.32 21.66 -9 22 C-8.67 20.35 -8.34 18.7 -8 17 C-7.34 17 -6.68 17 -6 17 C-6 15.68 -6 14.36 -6 13 C-5.34 13 -4.68 13 -4 13 C-3.896875 12.34 -3.79375 11.68 -3.6875 11 C-2.80786436 7.16158991 -1.43030104 3.66903309 0 0 Z " fill="#197FC0" transform="translate(136,83)"/>
<path d="M0 0 C-6.10036597 5.05458895 -10.14002176 7.33390015 -18 8 C-17.67 7.34 -17.34 6.68 -17 6 C-14.67843403 5.59270772 -12.3431213 5.25561323 -10 5 C-10 4.34 -10 3.68 -10 3 C-6.58168085 0.4606772 -4.24223102 -0.3636198 0 0 Z " fill="#218CC5" transform="translate(112,122)"/>
<path d="M0 0 C3.21043882 1.38188453 5.04936365 2.92421903 7.25 5.625 C7.77078125 6.25664063 8.2915625 6.88828125 8.828125 7.5390625 C9.40820312 8.26222656 9.40820312 8.26222656 10 9 C5.32307692 7.52307692 5.32307692 7.52307692 3.6875 4.875 C3.3471875 3.946875 3.3471875 3.946875 3 3 C1.35 4.32 -0.3 5.64 -2 7 C-1.125 1.125 -1.125 1.125 0 0 Z " fill="#1279B8" transform="translate(35,37)"/>
<path d="M0 0 C2.94659063 0.41115218 5.57181839 0.81484039 8.3125 2 C11.3800839 3.14142657 14.05233598 3.41004413 17.3125 3.625 C18.91544922 3.73714844 18.91544922 3.73714844 20.55078125 3.8515625 C21.35902344 3.90054688 22.16726562 3.94953125 23 4 C23 4.33 23 4.66 23 5 C7.63068859 5.20800572 7.63068859 5.20800572 3 4 C1.0625 1.9375 1.0625 1.9375 0 0 Z " fill="#0C93DA" transform="translate(66,60)"/>
<path d="M0 0 C4.455 0.99 4.455 0.99 9 2 C8.01 3.485 8.01 3.485 7 5 C3.375 5.1875 3.375 5.1875 0 5 C-0.33 4.01 -0.66 3.02 -1 2 C-0.67 1.34 -0.34 0.68 0 0 Z " fill="#24A8EA" transform="translate(46,92)"/>
<path d="M0 0 C0.99 0.495 0.99 0.495 2 1 C2 1.66 2 2.32 2 3 C3.175625 3.4640625 3.175625 3.4640625 4.375 3.9375 C7 5 7 5 9 6 C8.67 6.66 8.34 7.32 8 8 C5.36 7.34 2.72 6.68 0 6 C0 4.02 0 2.04 0 0 Z " fill="#099BE7" transform="translate(46,48)"/>
<path d="M0 0 C0.66 0.33 1.32 0.66 2 1 C-1.66666667 4.66666667 -5.33333333 8.33333333 -9 12 C-8.49897679 7.65779887 -5.85962472 5.13196993 -3 2 C-2.01 1.34 -1.02 0.68 0 0 Z " fill="#1475B5" transform="translate(101,35)"/>
<path d="M0 0 C2.97 0.495 2.97 0.495 6 1 C6 1.66 6 2.32 6 3 C4.35 2.67 2.7 2.34 1 2 C1.33 2.7425 1.66 3.485 2 4.25 C3 7 3 7 3 11 C2.34 11 1.68 11 1 11 C-0.28317892 7.15046324 -0.06643637 4.05261865 0 0 Z " fill="#1A81C5" transform="translate(32,69)"/>
<path d="M0 0 C2.64 0.33 5.28 0.66 8 1 C8.6875 2.8125 8.6875 2.8125 9 5 C7.6875 6.75 7.6875 6.75 6 8 C5.34 8 4.68 8 4 8 C4 5 4 5 6 3 C4.02 2.34 2.04 1.68 0 1 C0 0.67 0 0.34 0 0 Z " fill="#2DA0CE" transform="translate(54,111)"/>
<path d="M0 0 C2.31 0 4.62 0 7 0 C7 1.65 7 3.3 7 5 C4.69 4.34 2.38 3.68 0 3 C0 2.01 0 1.02 0 0 Z " fill="#0F97E1" transform="translate(33,124)"/>
<path d="M0 0 C0.66 0 1.32 0 2 0 C2.33 1.65 2.66 3.3 3 5 C2.34 5 1.68 5 1 5 C0.67 5.99 0.34 6.98 0 8 C-0.66 7.67 -1.32 7.34 -2 7 C-1.34 4.69 -0.68 2.38 0 0 Z " fill="#07A3F8" transform="translate(36,40)"/>
<path d="M0 0 C0.66 0.33 1.32 0.66 2 1 C-0.31 3.64 -2.62 6.28 -5 9 C-5.33 8.01 -5.66 7.02 -6 6 C-4 4 -2 2 0 0 Z " fill="#1382B4" transform="translate(125,106)"/>
<path d="M0 0 C0.33 0 0.66 0 1 0 C0.88557539 1.60495567 0.75805306 3.20898119 0.625 4.8125 C0.55539063 5.70582031 0.48578125 6.59914063 0.4140625 7.51953125 C0 10 0 10 -2 13 C-2.16682272 8.07872966 -2.24828052 4.49656104 0 0 Z " fill="#177BB7" transform="translate(140,70)"/>
<path d="M0 0 C-0.49831724 3.68754757 -1.10067643 5.60490662 -4 8 C-4.33 7.34 -4.66 6.68 -5 6 C-4.0625 3.875 -4.0625 3.875 -3 2 C-3.66 1.67 -4.32 1.34 -5 1 C-2 0 -2 0 0 0 Z " fill="#1B89AA" transform="translate(151,34)"/>
<path d="M0 0 C3 0 3 0 4.6875 1.375 C6 3 6 3 6 5 C3.03 4.505 3.03 4.505 0 4 C0 2.68 0 1.36 0 0 Z " fill="#089DE9" transform="translate(96,122)"/>
<path d="M0 0 C1.65 0 3.3 0 5 0 C4.65120368 3.25543229 3.97866739 4.01873107 1.4375 6.25 C0.633125 6.8275 -0.17125 7.405 -1 8 C0 6 1 4 2 2 C1.34 1.34 0.68 0.68 0 0 Z " fill="#0082C3" transform="translate(145,47)"/>
<path d="M0 0 C7.57142857 4.14285714 7.57142857 4.14285714 10 7 C5.61537866 6.49890042 3.1999003 5.01704885 0 2 C0 1.34 0 0.68 0 0 Z " fill="#2285BC" transform="translate(45,46)"/>
<path d="M0 0 C0.598125 0.350625 1.19625 0.70125 1.8125 1.0625 C0.8225 1.0625 -0.1675 1.0625 -1.1875 1.0625 C-1.1875 1.7225 -1.1875 2.3825 -1.1875 3.0625 C-2.8375 3.0625 -4.4875 3.0625 -6.1875 3.0625 C-5.8575 2.0725 -5.5275 1.0825 -5.1875 0.0625 C-2.1875 -0.9375 -2.1875 -0.9375 0 0 Z " fill="#1C93CE" transform="translate(86.1875,131.9375)"/>
<path d="M0 0 C2.64 0.33 5.28 0.66 8 1 C8 1.99 8 2.98 8 4 C5.36 3.34 2.72 2.68 0 2 C0 1.34 0 0.68 0 0 Z " fill="#0894DB" transform="translate(56,109)"/>
<path d="M0 0 C-0.33 0.99 -0.66 1.98 -1 3 C-5.455 3.495 -5.455 3.495 -10 4 C-6.86268382 1.90845588 -3.85464592 0 0 0 Z " fill="#0993D7" transform="translate(58,119)"/>
<path d="M0 0 C0.763125 0.0825 1.52625 0.165 2.3125 0.25 C2.3125 1.24 2.3125 2.23 2.3125 3.25 C0.9925 3.25 -0.3275 3.25 -1.6875 3.25 C-3.02914079 3.5481424 -4.36601173 3.87243192 -5.6875 4.25 C-3.34903846 0.31153846 -3.34903846 0.31153846 0 0 Z " fill="#129BDE" transform="translate(143.6875,43.75)"/>
<path d="M0 0 C2.97 0.33 5.94 0.66 9 1 C8.01 1.495 8.01 1.495 7 2 C7 2.66 7 3.32 7 4 C4.69 3.34 2.38 2.68 0 2 C0 1.34 0 0.68 0 0 Z " fill="#079CE9" transform="translate(130,40)"/>
<path d="" fill="#FFFFFF" transform="translate(0,0)"/>
<path d="" fill="#FFFFFF" transform="translate(0,0)"/>
<path d="" fill="#FFFFFF" transform="translate(0,0)"/>
<path d="" fill="#FFFFFF" transform="translate(0,0)"/>
<path d="" fill="#FFFFFF" transform="translate(0,0)"/>
<path d="" fill="#FFFFFF" transform="translate(0,0)"/>
<path d="" fill="#FEFFFF" transform="translate(0,0)"/>
<path d="" fill="#FFFFFF" transform="translate(0,0)"/>
<path d="" fill="#FFFFFF" transform="translate(0,0)"/>
<path d="" fill="#FFFFFF" transform="translate(0,0)"/>
<path d="" fill="#FFFFFF" transform="translate(0,0)"/>
<path d="" fill="#FFFFFF" transform="translate(0,0)"/>
<path d="" fill="#FFFFFF" transform="translate(0,0)"/>
<path d="" fill="#FFFFFF" transform="translate(0,0)"/>
<path d="" fill="#FFFFFF" transform="translate(0,0)"/>
<path d="" fill="#FFFFFF" transform="translate(0,0)"/>
<path d="" fill="#FFFFFF" transform="translate(0,0)"/>
<path d="" fill="#FFFFFF" transform="translate(0,0)"/>
<path d="" fill="#FFFFFF" transform="translate(0,0)"/>
<path d="" fill="#FFFFFF" transform="translate(0,0)"/>
<path d="" fill="#FFFFFF" transform="translate(0,0)"/>
<path d="" fill="#FFFFFF" transform="translate(0,0)"/>
<path d="" fill="#FFFFFF" transform="translate(0,0)"/>
<path d="" fill="#FFFFFF" transform="translate(0,0)"/>
<path d="" fill="#FFFFFF" transform="translate(0,0)"/>
<path d="" fill="#FFFFFF" transform="translate(0,0)"/>
<path d="" fill="#FFFFFF" transform="translate(0,0)"/>
<path d="" fill="#FFFFFF" transform="translate(0,0)"/>
<path d="" fill="#FFFFFF" transform="translate(0,0)"/>
<path d="" fill="#FFFFFF" transform="translate(0,0)"/>
<path d="" fill="#FFFFFF" transform="translate(0,0)"/>
<path d="" fill="#FFFFFF" transform="translate(0,0)"/>
<path d="" fill="#FFFFFF" transform="translate(0,0)"/>
<path d="" fill="#FFFFFF" transform="translate(0,0)"/>
<path d="" fill="#FFFFFF" transform="translate(0,0)"/>
<path d="" fill="#FFFFFF" transform="translate(0,0)"/>
<path d="" fill="#FFFFFF" transform="translate(0,0)"/>
<path d="" fill="#FFFFFF" transform="translate(0,0)"/>
<path d="" fill="#FFFFFF" transform="translate(0,0)"/>
<path d="" fill="#FFFFFF" transform="translate(0,0)"/>
<path d="" fill="#FFFFFF" transform="translate(0,0)"/>
<path d="" fill="#FFFFFF" transform="translate(0,0)"/>
<path d="" fill="#FFFFFF" transform="translate(0,0)"/>
<path d="" fill="#FFFFFF" transform="translate(0,0)"/>
<path d="" fill="#FFFFFF" transform="translate(0,0)"/>
<path d="" fill="#FFFFFF" transform="translate(0,0)"/>
<path d="" fill="#FFFFFF" transform="translate(0,0)"/>
<path d="" fill="#FFFFFF" transform="translate(0,0)"/>
<path d="" fill="#FFFFFF" transform="translate(0,0)"/>
<path d="" fill="#FFFFFF" transform="translate(0,0)"/>
<path d="" fill="#FFFFFF" transform="translate(0,0)"/>
<path d="" fill="#00FFFF" transform="translate(0,0)"/>
<path d="" fill="#FFFFFF" transform="translate(0,0)"/>
<path d="" fill="#FFFFFF" transform="translate(0,0)"/>
<path d="" fill="#FFFFFF" transform="translate(0,0)"/>
<path d="" fill="#FFFFFF" transform="translate(0,0)"/>
<path d="" fill="#FFFFFF" transform="translate(0,0)"/>
<path d="" fill="#FFFFFF" transform="translate(0,0)"/>
<path d="" fill="#FFFFFF" transform="translate(0,0)"/>
<path d="" fill="#FFFFFF" transform="translate(0,0)"/>
<path d="" fill="#FFFFFF" transform="translate(0,0)"/>
<path d="" fill="#FFFFFF" transform="translate(0,0)"/>
<path d="" fill="#FFFFFF" transform="translate(0,0)"/>
<path d="" fill="#FFFFFF" transform="translate(0,0)"/>
<path d="" fill="#FFFFFF" transform="translate(0,0)"/>
<path d="" fill="#FFFFFF" transform="translate(0,0)"/>
<path d="" fill="#FFFFFF" transform="translate(0,0)"/>
<path d="" fill="#FFFFFF" transform="translate(0,0)"/>
</svg>
